# xmcd CD database file
#
# Track frame offsets:
#	150
#	15967
#	34480
#	51522
#	67217
#	86097
#	103267
#	117235
#	134560
#	152732
#	172562
#
# Disc length: 2506 seconds
#
# Revision: 0
# Processed by: cddbd v1.5PL3 Copyright (c) Steve Scherf et al.
# Submitted via: CDex 1.51
#
DISCID=9609c80b
DTITLE=HUBERT KaH - TenSongs
DYEAR=1900
DGENRE=Techno
TTITLE0=Pogo The Clown
TTITLE1=Lonesome Cowboy
TTITLE2=Drowning
TTITLE3=Something I Should Know
TTITLE4=Explain The World In A Word
TTITLE5=Love Is So Sensible
TTITLE6=Get Strange
TTITLE7=That Girl
TTITLE8=Limosine
TTITLE9=Under My Skin
TTITLE10=The Picture
EXTD=
EXTT0=
EXTT1=
EXTT2=
EXTT3=
EXTT4=
EXTT5=
EXTT6=
EXTT7=
EXTT8=
EXTT9=
EXTT10=
PLAYORDER=
